<?xml version="1.0" encoding="utf-8"?>
<!-- Generator: Adobe Illustrator 16.0.0, SVG Export Plug-In . SVG Version: 6.00 Build 0)  -->
<!DOCTYPE svg PUBLIC "-//W3C//DTD SVG 1.1//EN" "http://www.w3.org/Graphics/SVG/1.1/DTD/svg11.dtd">
<svg version="1.1" id="Layer_1" xmlns="http://www.w3.org/2000/svg" xmlns:xlink="http://www.w3.org/1999/xlink" x="0px" y="0px"
	 width="22.088px" height="22.086px" viewBox="0 0 22.088 22.086" enable-background="new 0 0 22.088 22.086" xml:space="preserve">
<g>
	<path id="Blue_2_" fill="#4E638F" d="M20.867,22.086c0.675,0,1.22-0.541,1.22-1.218V1.218c0-0.675-0.545-1.218-1.22-1.218H1.22
		C0.544,0,0,0.543,0,1.218v19.65c0,0.677,0.544,1.218,1.22,1.218H20.867z"/>
	<path id="f_2_" fill="#FFFFFF" d="M15.241,22.086v-8.551h2.87l0.428-3.334h-3.298V8.07c0-0.963,0.268-1.623,1.651-1.623h1.768
		V3.466c-0.309-0.04-1.356-0.132-2.575-0.132c-2.546,0-4.287,1.556-4.287,4.409v2.458H8.919v3.334h2.879v8.551H15.241z"/>
</g>
</svg>
