<?xml version="1.0" encoding="utf-8"?>
<!-- Generator: Adobe Illustrator 16.0.0, SVG Export Plug-In . SVG Version: 6.00 Build 0)  -->
<!DOCTYPE svg PUBLIC "-//W3C//DTD SVG 1.1//EN" "http://www.w3.org/Graphics/SVG/1.1/DTD/svg11.dtd">
<svg version="1.1" id="Layer_1" xmlns="http://www.w3.org/2000/svg" xmlns:xlink="http://www.w3.org/1999/xlink" x="0px" y="0px"
	 width="22.088px" height="22.086px" viewBox="0 0 22.088 22.086" enable-background="new 0 0 22.088 22.086" xml:space="preserve">
<g>
	<path id="Blue_2_" fill="#4E638F" d="M98.321,50.462c0.675,0,1.22-0.541,1.22-1.218v-19.65c0-0.675-0.545-1.218-1.22-1.218H78.674
		c-0.676,0-1.22,0.543-1.22,1.218v19.65c0,0.677,0.544,1.218,1.22,1.218H98.321z"/>
	<path id="f_2_" fill="#FFFFFF" d="M92.695,50.462v-8.551h2.87l0.428-3.334h-3.298v-2.13c0-0.963,0.268-1.623,1.651-1.623h1.768
		v-2.981c-0.309-0.04-1.356-0.132-2.575-0.132c-2.546,0-4.287,1.556-4.287,4.409v2.458h-2.879v3.334h2.879v8.551H92.695z"/>
</g>
<g>
	<g>
		<path fill="#5A95CB" d="M22.088,21.235c0,0.468-0.383,0.851-0.851,0.851H0.85c-0.467,0-0.85-0.383-0.85-0.851V0.851
			C0,0.383,0.383,0,0.85,0h20.388c0.468,0,0.851,0.383,0.851,0.851V21.235z"/>
	</g>
	<path fill="#FFFFFF" d="M18.584,6.284c-0.549,0.245-1.14,0.408-1.757,0.481c0.631-0.378,1.118-0.979,1.345-1.693
		c-0.589,0.352-1.246,0.605-1.946,0.741c-0.555-0.593-1.35-0.962-2.231-0.962c-1.686,0-3.059,1.368-3.059,3.056
		c0,0.242,0.029,0.477,0.081,0.701C8.473,8.477,6.219,7.261,4.708,5.41C4.447,5.862,4.296,6.387,4.296,6.946
		c0,1.062,0.54,2.001,1.36,2.547c-0.5-0.014-0.971-0.155-1.385-0.382c0,0.013,0,0.025,0,0.04c0,1.481,1.052,2.716,2.455,2.998
		c-0.258,0.07-0.528,0.111-0.809,0.111c-0.197,0-0.387-0.022-0.574-0.058c0.391,1.217,1.519,2.101,2.857,2.127
		c-1.044,0.819-2.368,1.307-3.801,1.307c-0.247,0-0.492-0.014-0.728-0.043c1.354,0.87,2.962,1.375,4.689,1.375
		c5.626,0,8.704-4.66,8.704-8.705c0-0.132-0.002-0.264-0.012-0.396C17.657,7.438,18.174,6.899,18.584,6.284z"/>
</g>
</svg>
